<mxfile host="app.diagrams.net" modified="2023-07-07T15:49:33.362Z" agent="Mozilla/5.0 (Windows NT 10.0; Win64; x64) AppleWebKit/537.36 (KHTML, like Gecko) Chrome/114.0.0.0 Safari/537.36 Edg/114.0.1823.67" etag="ikY32F5d2vvHSvYP14A0" version="21.6.1" type="github">
  <diagram name="Página-1" id="T3vyX-Sec2HJervNPnau">
    <mxGraphModel dx="739" dy="430" grid="1" gridSize="10" guides="1" tooltips="1" connect="1" arrows="1" fold="1" page="1" pageScale="1" pageWidth="827" pageHeight="1169" math="0" shadow="0">
      <root>
        <mxCell id="0" />
        <mxCell id="1" parent="0" />
        <mxCell id="Yiz2X0rGH1z4_K84l_m3-1" value="Início" style="strokeWidth=2;html=1;shape=mxgraph.flowchart.start_1;whiteSpace=wrap;" vertex="1" parent="1">
          <mxGeometry x="210" y="150" width="100" height="60" as="geometry" />
        </mxCell>
        <mxCell id="Yiz2X0rGH1z4_K84l_m3-3" value="Fim" style="strokeWidth=2;html=1;shape=mxgraph.flowchart.terminator;whiteSpace=wrap;" vertex="1" parent="1">
          <mxGeometry x="640" y="110" width="100" height="60" as="geometry" />
        </mxCell>
        <mxCell id="Yiz2X0rGH1z4_K84l_m3-4" value="Documento" style="strokeWidth=2;html=1;shape=mxgraph.flowchart.document2;whiteSpace=wrap;size=0.25;" vertex="1" parent="1">
          <mxGeometry x="530" y="300" width="100" height="60" as="geometry" />
        </mxCell>
        <mxCell id="Yiz2X0rGH1z4_K84l_m3-5" value="Exibir" style="strokeWidth=2;html=1;shape=mxgraph.flowchart.display;whiteSpace=wrap;" vertex="1" parent="1">
          <mxGeometry x="640" y="400" width="100" height="60" as="geometry" />
        </mxCell>
        <mxCell id="Yiz2X0rGH1z4_K84l_m3-6" value="Fita" style="shape=tape;whiteSpace=wrap;html=1;strokeWidth=2;size=0.19" vertex="1" parent="1">
          <mxGeometry x="530" y="220" width="100" height="65" as="geometry" />
        </mxCell>
        <mxCell id="Yiz2X0rGH1z4_K84l_m3-7" value="Entrada manual" style="html=1;strokeWidth=2;shape=manualInput;whiteSpace=wrap;rounded=1;size=26;arcSize=11;" vertex="1" parent="1">
          <mxGeometry x="640" y="260" width="100" height="60" as="geometry" />
        </mxCell>
        <mxCell id="Yiz2X0rGH1z4_K84l_m3-8" value="Decisão" style="strokeWidth=2;html=1;shape=mxgraph.flowchart.decision;whiteSpace=wrap;" vertex="1" parent="1">
          <mxGeometry x="530" y="380" width="100" height="100" as="geometry" />
        </mxCell>
        <mxCell id="Yiz2X0rGH1z4_K84l_m3-9" value="Dados" style="shape=parallelogram;html=1;strokeWidth=2;perimeter=parallelogramPerimeter;whiteSpace=wrap;rounded=1;arcSize=12;size=0.23;" vertex="1" parent="1">
          <mxGeometry x="640" y="330" width="100" height="60" as="geometry" />
        </mxCell>
        <mxCell id="Yiz2X0rGH1z4_K84l_m3-11" value="Conector" style="verticalLabelPosition=bottom;verticalAlign=top;html=1;shape=mxgraph.flowchart.on-page_reference;" vertex="1" parent="1">
          <mxGeometry x="660" y="180" width="60" height="60" as="geometry" />
        </mxCell>
      </root>
    </mxGraphModel>
  </diagram>
</mxfile>
